<svg width="18" height="18" viewBox="0 0 22 22" fill="none" xmlns="http://www.w3.org/2000/svg">
<path d="M8.03 15.125L11 12.155L13.97 15.125L15.111 13.956L12.155 11L15.111 8.04402L13.97 6.875L11 9.845L8.03 6.875L6.7375 8.04402L9.845 11L6.88902 13.956L8.03 15.125ZM11 22C9.49667 22 8.07583 21.7112 6.7375 21.1338C5.39917 20.5563 4.23041 19.7679 3.23125 18.7688C2.23208 17.7696 1.44375 16.6008 0.866249 15.2625C0.28875 13.9242 -9.10299e-07 12.5033 -9.10299e-07 11C-9.10299e-07 9.47834 0.28875 8.04833 0.866249 6.71C1.44375 5.37167 2.23208 4.2075 3.23125 3.2175C4.23041 2.2275 5.39917 1.44375 6.7375 0.866251C8.07583 0.288752 9.49667 9.10299e-07 11 9.10299e-07C12.5217 9.10299e-07 13.9517 0.288752 15.29 0.866251C16.6283 1.44375 17.7925 2.2275 18.7825 3.2175C19.7725 4.2075 20.5562 5.37167 21.1337 6.71C21.7112 8.04833 22 9.47834 22 11C22 12.5033 21.7112 13.9242 21.1337 15.2625C20.5562 16.6008 19.7725 17.7696 18.7825 18.7688C17.7925 19.7679 16.6283 20.5563 15.29 21.1338C13.9517 21.7112 12.5217 22 11 22ZM11 20.35C13.6033 20.35 15.8125 19.4379 17.6275 17.6138C19.4425 15.7896 20.35 13.585 20.35 11C20.35 8.39667 19.4425 6.1875 17.6275 4.3725C15.8125 2.5575 13.6033 1.65 11 1.65C8.415 1.65 6.21041 2.5575 4.38625 4.3725C2.56209 6.1875 1.65 8.39667 1.65 11C1.65 13.585 2.56209 15.7896 4.38625 17.6138C6.21041 19.4379 8.415 20.35 11 20.35Z" fill="white"/>
</svg>
