<svg width="90" height="20" viewBox="0 0 123 25" fill="none" xmlns="http://www.w3.org/2000/svg">
<g clip-path="url(#clip0_4_18)">
<path d="M19.4531 12V13.25C19.4531 14.9688 19.2292 16.5104 18.7812 17.875C18.3333 19.2396 17.6927 20.401 16.8594 21.3594C16.0365 22.3177 15.0469 23.0521 13.8906 23.5625C12.7344 24.0625 11.4531 24.3125 10.0469 24.3125C8.65104 24.3125 7.375 24.0625 6.21875 23.5625C5.07292 23.0521 4.07812 22.3177 3.23438 21.3594C2.39062 20.401 1.73438 19.2396 1.26562 17.875C0.807292 16.5104 0.578125 14.9688 0.578125 13.25V12C0.578125 10.2812 0.807292 8.74479 1.26562 7.39062C1.72396 6.02604 2.36979 4.86458 3.20312 3.90625C4.04688 2.9375 5.04167 2.20312 6.1875 1.70312C7.34375 1.19271 8.61979 0.9375 10.0156 0.9375C11.4219 0.9375 12.7031 1.19271 13.8594 1.70312C15.0156 2.20312 16.0104 2.9375 16.8438 3.90625C17.6771 4.86458 18.3177 6.02604 18.7656 7.39062C19.224 8.74479 19.4531 10.2812 19.4531 12ZM15.5312 13.25V11.9688C15.5312 10.6979 15.4062 9.57812 15.1562 8.60938C14.9167 7.63021 14.5573 6.8125 14.0781 6.15625C13.6094 5.48958 13.0312 4.98958 12.3438 4.65625C11.6562 4.3125 10.8802 4.14062 10.0156 4.14062C9.15104 4.14062 8.38021 4.3125 7.70312 4.65625C7.02604 4.98958 6.44792 5.48958 5.96875 6.15625C5.5 6.8125 5.14062 7.63021 4.89062 8.60938C4.64062 9.57812 4.51562 10.6979 4.51562 11.9688V13.25C4.51562 14.5208 4.64062 15.6458 4.89062 16.625C5.14062 17.6042 5.50521 18.4323 5.98438 19.1094C6.47396 19.776 7.05729 20.2812 7.73438 20.625C8.41146 20.9583 9.18229 21.125 10.0469 21.125C10.9219 21.125 11.6979 20.9583 12.375 20.625C13.0521 20.2812 13.625 19.776 14.0938 19.1094C14.5625 18.4323 14.9167 17.6042 15.1562 16.625C15.4062 15.6458 15.5312 14.5208 15.5312 13.25ZM23.375 1.25H31.4219C33.151 1.25 34.625 1.51042 35.8438 2.03125C37.0625 2.55208 37.9948 3.32292 38.6406 4.34375C39.2969 5.35417 39.625 6.60417 39.625 8.09375C39.625 9.22917 39.4167 10.2292 39 11.0938C38.5833 11.9583 37.9948 12.6875 37.2344 13.2812C36.474 13.8646 35.5677 14.3177 34.5156 14.6406L33.3281 15.2188H26.0938L26.0625 12.1094H31.4844C32.4219 12.1094 33.2031 11.9427 33.8281 11.6094C34.4531 11.276 34.9219 10.8229 35.2344 10.25C35.5573 9.66667 35.7188 9.01042 35.7188 8.28125C35.7188 7.48958 35.5625 6.80208 35.25 6.21875C34.9479 5.625 34.4792 5.17188 33.8438 4.85938C33.2083 4.53646 32.401 4.375 31.4219 4.375H27.2969V24H23.375V1.25ZM36.3594 24L31.0156 13.7812L35.125 13.7656L40.5469 23.7969V24H36.3594ZM61.5781 1.25V24H57.6562L47.4531 7.70312V24H43.5312V1.25H47.4531L57.6875 17.5781V1.25H61.5781ZM75.3906 4.28125L68.5938 24H64.4844L73.0469 1.25H75.6719L75.3906 4.28125ZM81.0781 24L74.2656 4.28125L73.9688 1.25H76.6094L85.2031 24H81.0781ZM80.75 15.5625V18.6719H68.375V15.5625H80.75ZM87.75 1.25H95.7969C97.526 1.25 99 1.51042 100.219 2.03125C101.438 2.55208 102.37 3.32292 103.016 4.34375C103.672 5.35417 104 6.60417 104 8.09375C104 9.22917 103.792 10.2292 103.375 11.0938C102.958 11.9583 102.37 12.6875 101.609 13.2812C100.849 13.8646 99.9427 14.3177 98.8906 14.6406L97.7031 15.2188H90.4688L90.4375 12.1094H95.8594C96.7969 12.1094 97.5781 11.9427 98.2031 11.6094C98.8281 11.276 99.2969 10.8229 99.6094 10.25C99.9323 9.66667 100.094 9.01042 100.094 8.28125C100.094 7.48958 99.9375 6.80208 99.625 6.21875C99.3229 5.625 98.8542 5.17188 98.2188 4.85938C97.5833 4.53646 96.776 4.375 95.7969 4.375H91.6719V24H87.75V1.25ZM100.734 24L95.3906 13.7812L99.5 13.7656L104.922 23.7969V24H100.734ZM122.797 20.8906V24H110.719V20.8906H122.797ZM111.828 1.25V24H107.906V1.25H111.828ZM121.219 10.75V13.8125H110.719V10.75H121.219ZM122.719 1.25V4.375H110.719V1.25H122.719Z" fill="black"/>
</g>
<defs>
<clipPath id="clip0_4_18">
<rect width="123" height="25" fill="white"/>
</clipPath>
</defs>
</svg>
